<svg xmlns="http://www.w3.org/2000/svg" viewBox="0 0 512 512">
    <defs>
        <linearGradient id="grad1" x1="0%" y1="0%" x2="100%" y2="100%">
            <stop offset="0%" style="stop-color:#3b82f6;stop-opacity:1" />
            <stop offset="100%" style="stop-color:#8b5cf6;stop-opacity:1" />
        </linearGradient>
    </defs>
    <rect width="512" height="512" rx="100" fill="url(#grad1)"/>
    <path fill="#ffffff" d="M352 256c0 22.1-17.9 40-40 40s-40-17.9-40-40 17.9-40 40-40 40 17.9 40 40zm-152 40c-22.1 0-40-17.9-40-40s17.9-40 40-40 40 17.9 40 40-17.9 40-40 40zm56-144c0 26.5-21.5 48-48 48s-48-21.5-48-48 21.5-48 48-48 48 21.5 48 48zM96 368c0-35.3 28.7-64 64-64h192c35.3 0 64 28.7 64 64v16c0 8.8-7.2 16-16 16H112c-8.8 0-16-7.2-16-16v-16z"/>
</svg>
